  0
SECTION
  2
HEADER
  9
$ANGBASE
  50
0.0
  9
$ANGDIR
  70
1
  9
$MEASUREMENT
  70
0
  0
ENDSEC
  0
SECTION
  2
TABLES
  0
TABLE
  2
LTYPE
  70
4
  0
LTYPE
  5
40F
  2
CONTINUOUS
  70
0
  3
Solid line
  72
65
  73
0
  40
0.0
  0
LTYPE
  5
410
  2
DASHDOT
 70
0
  3
Dash Dot ____ _ ____ _
 72
65
 73
4
 40
2.0
 49
1.25
 49
-0.25
 49
0.25
 49
-0.25
  0
LTYPE
  5
411
  2
DASHED
 70
0
  3
Dashed __ __ __ __ __
 72
65
 73
2
 40
0.75
 49
0.5
 49
-0.25
  0
LTYPE
  5
43B
  2
DOTTED
 70
0
  3
Dotted .  .  .  .
 72
65
 73
2
 40
0.2
 49
0.0
 49
-0.2
  0
ENDTAB
  0
TABLE
  2
STYLE
  70
4
  0
STYLE
  2
KICAD
  70
0
  40
0
  41
1
  42
1
  50
0
  71
0
  3
isocp.shx
  0
STYLE
  2
KICADB
  70
0
  40
0
  41
1
  42
1
  50
0
  71
0
  3
isocp.shx
  0
STYLE
  2
KICADI
  70
0
  40
0
  41
1
  42
1
  50
15
  71
0
  3
isocp.shx
  0
STYLE
  2
KICADBI
  70
0
  40
0
  41
1
  42
1
  50
15
  71
0
  3
isocp.shx
  0
ENDTAB
  0
TABLE
  2
LAYER
  70
1
  0
LAYER
  2
BLACK
  70
0
  62
7
  6
CONTINUOUS
  0
ENDTAB
  0
ENDSEC
  0
SECTION
  2
ENTITIES
0
LINE
8
BLACK
6
CONTINUOUS
10
0.1696679921259842
20
0.3329959448818898
11
0.1702006692913386
21
0.3324632677165354
0
LINE
8
BLACK
6
CONTINUOUS
10
0.1702006692913386
20
0.3324632677165354
11
0.1702755905511811
21
0.3320866141732283
0
LINE
8
BLACK
6
CONTINUOUS
10
0.1702755905511811
20
0.3320866141732283
11
0.1702755905511811
21
-0.3474409448818898
0
LINE
8
BLACK
6
CONTINUOUS
10
0.1702755905511811
20
-0.3474409448818898
11
0.1702006692913386
21
-0.3478175984251968
0
LINE
8
BLACK
6
CONTINUOUS
10
0.1702006692913386
20
-0.3478175984251968
11
0.1696679921259842
21
-0.3483502755905512
0
LINE
8
BLACK
6
CONTINUOUS
10
0.1696679921259842
20
-0.3483502755905512
11
0.1692913385826772
21
-0.3484251968503937
0
LINE
8
BLACK
6
CONTINUOUS
10
0.1692913385826772
20
-0.3484251968503937
11
-0.1692913385826772
21
-0.3484251968503937
0
LINE
8
BLACK
6
CONTINUOUS
10
-0.1692913385826772
20
-0.3484251968503937
11
-0.1696679921259842
21
-0.3483502755905512
0
LINE
8
BLACK
6
CONTINUOUS
10
-0.1696679921259842
20
-0.3483502755905512
11
-0.1702006692913386
21
-0.3478175984251968
0
LINE
8
BLACK
6
CONTINUOUS
10
-0.1702006692913386
20
-0.3478175984251968
11
-0.1702755905511811
21
-0.3474409448818898
0
LINE
8
BLACK
6
CONTINUOUS
10
-0.1702755905511811
20
-0.3474409448818898
11
-0.1702755905511811
21
0.3320866141732283
0
LINE
8
BLACK
6
CONTINUOUS
10
-0.1702755905511811
20
0.3320866141732283
11
-0.1702006692913386
21
0.3324632677165354
0
LINE
8
BLACK
6
CONTINUOUS
10
-0.1702006692913386
20
0.3324632677165354
11
-0.1696679921259842
21
0.3329959448818898
0
LINE
8
BLACK
6
CONTINUOUS
10
-0.1696679921259842
20
0.3329959448818898
11
-0.1692913385826772
21
0.3330708661417323
0
LINE
8
BLACK
6
CONTINUOUS
10
-0.1692913385826772
20
0.3330708661417323
11
0.1692913385826772
21
0.3330708661417323
0
LINE
8
BLACK
6
CONTINUOUS
10
0.1692913385826772
20
0.3330708661417323
11
0.1696679921259842
21
0.3329959448818898
0
LINE
8
BLACK
6
CONTINUOUS
10
-0.1683070866141732
20
0.3311023622047244
11
-0.1683070866141732
21
-0.3464566929133858
0
LINE
8
BLACK
6
CONTINUOUS
10
-0.1683070866141732
20
-0.3464566929133858
11
0.1683070866141732
21
-0.3464566929133858
0
LINE
8
BLACK
6
CONTINUOUS
10
0.1683070866141732
20
-0.3464566929133858
11
0.1683070866141732
21
0.3311023622047244
0
LINE
8
BLACK
6
CONTINUOUS
10
0.1683070866141732
20
0.3311023622047244
11
-0.1683070866141732
21
0.3311023622047244
0
LINE
8
BLACK
6
CONTINUOUS
10
0.3937007874015748
20
0.515748031496063
11
0.4064581889763779
21
0.5150794488188977
0
LINE
8
BLACK
6
CONTINUOUS
10
0.4064581889763779
20
0.5150794488188977
11
0.4190758267716536
21
0.5130810236220472
0
LINE
8
BLACK
6
CONTINUOUS
10
0.4190758267716536
20
0.5130810236220472
11
0.4314154724409449
21
0.5097746062992126
0
LINE
8
BLACK
6
CONTINUOUS
10
0.4314154724409449
20
0.5097746062992126
11
0.4433418897637795
21
0.5051964960629921
0
LINE
8
BLACK
6
CONTINUOUS
10
0.4433418897637795
20
0.5051964960629921
11
0.4547244094488189
21
0.499396811023622
0
LINE
8
BLACK
6
CONTINUOUS
10
0.4547244094488189
20
0.499396811023622
11
0.4654383464566929
21
0.492439094488189
0
LINE
8
BLACK
6
CONTINUOUS
10
0.4654383464566929
20
0.492439094488189
11
0.4753663385826771
21
0.4843995669291338
0
LINE
8
BLACK
6
CONTINUOUS
10
0.4753663385826771
20
0.4843995669291338
11
0.4843995669291338
21
0.4753663385826771
0
LINE
8
BLACK
6
CONTINUOUS
10
0.4843995669291338
20
0.4753663385826771
11
0.492439094488189
21
0.4654383464566929
0
LINE
8
BLACK
6
CONTINUOUS
10
0.492439094488189
20
0.4654383464566929
11
0.499396811023622
21
0.4547244094488189
0
LINE
8
BLACK
6
CONTINUOUS
10
0.499396811023622
20
0.4547244094488189
11
0.5051964960629921
21
0.4433418897637795
0
LINE
8
BLACK
6
CONTINUOUS
10
0.5051964960629921
20
0.4433418897637795
11
0.5097746062992126
21
0.4314154724409449
0
LINE
8
BLACK
6
CONTINUOUS
10
0.5097746062992126
20
0.4314154724409449
11
0.5130810236220472
21
0.4190758267716536
0
LINE
8
BLACK
6
CONTINUOUS
10
0.5130810236220472
20
0.4190758267716536
11
0.5150794488188977
21
0.4064581889763779
0
LINE
8
BLACK
6
CONTINUOUS
10
0.5150794488188977
20
0.4064581889763779
11
0.515748031496063
21
0.3937007874015748
0
LINE
8
BLACK
6
CONTINUOUS
10
0.515748031496063
20
0.3937007874015748
11
0.515748031496063
21
-0.3937007874015748
0
LINE
8
BLACK
6
CONTINUOUS
10
0.515748031496063
20
-0.3937007874015748
11
0.5150794488188977
21
-0.4064581889763779
0
LINE
8
BLACK
6
CONTINUOUS
10
0.5150794488188977
20
-0.4064581889763779
11
0.5130810236220472
21
-0.4190758267716536
0
LINE
8
BLACK
6
CONTINUOUS
10
0.5130810236220472
20
-0.4190758267716536
11
0.5097746062992126
21
-0.4314154724409449
0
LINE
8
BLACK
6
CONTINUOUS
10
0.5097746062992126
20
-0.4314154724409449
11
0.5051964960629921
21
-0.4433418897637795
0
LINE
8
BLACK
6
CONTINUOUS
10
0.5051964960629921
20
-0.4433418897637795
11
0.499396811023622
21
-0.4547244094488189
0
LINE
8
BLACK
6
CONTINUOUS
10
0.499396811023622
20
-0.4547244094488189
11
0.492439094488189
21
-0.4654383464566929
0
LINE
8
BLACK
6
CONTINUOUS
10
0.492439094488189
20
-0.4654383464566929
11
0.4843995669291338
21
-0.4753663385826771
0
LINE
8
BLACK
6
CONTINUOUS
10
0.4843995669291338
20
-0.4753663385826771
11
0.4753663385826771
21
-0.4843995669291338
0
LINE
8
BLACK
6
CONTINUOUS
10
0.4753663385826771
20
-0.4843995669291338
11
0.4654383464566929
21
-0.492439094488189
0
LINE
8
BLACK
6
CONTINUOUS
10
0.4654383464566929
20
-0.492439094488189
11
0.4547244094488189
21
-0.499396811023622
0
LINE
8
BLACK
6
CONTINUOUS
10
0.4547244094488189
20
-0.499396811023622
11
0.4433418897637795
21
-0.5051964960629921
0
LINE
8
BLACK
6
CONTINUOUS
10
0.4433418897637795
20
-0.5051964960629921
11
0.4314154724409449
21
-0.5097746062992126
0
LINE
8
BLACK
6
CONTINUOUS
10
0.4314154724409449
20
-0.5097746062992126
11
0.4190758267716536
21
-0.5130810236220472
0
LINE
8
BLACK
6
CONTINUOUS
10
0.4190758267716536
20
-0.5130810236220472
11
0.4064581889763779
21
-0.5150794488188977
0
LINE
8
BLACK
6
CONTINUOUS
10
0.4064581889763779
20
-0.5150794488188977
11
0.3937007874015748
21
-0.515748031496063
0
LINE
8
BLACK
6
CONTINUOUS
10
0.3937007874015748
20
-0.515748031496063
11
-0.3937007874015748
21
-0.515748031496063
0
LINE
8
BLACK
6
CONTINUOUS
10
-0.3937007874015748
20
-0.515748031496063
11
-0.4064581889763779
21
-0.5150794488188977
0
LINE
8
BLACK
6
CONTINUOUS
10
-0.4064581889763779
20
-0.5150794488188977
11
-0.4190758267716536
21
-0.5130809842519685
0
LINE
8
BLACK
6
CONTINUOUS
10
-0.4190758267716536
20
-0.5130809842519685
11
-0.4314154724409449
21
-0.5097746062992126
0
LINE
8
BLACK
6
CONTINUOUS
10
-0.4314154724409449
20
-0.5097746062992126
11
-0.4433418503937008
21
-0.5051964960629921
0
LINE
8
BLACK
6
CONTINUOUS
10
-0.4433418503937008
20
-0.5051964960629921
11
-0.4547244094488189
21
-0.4993967716535433
0
LINE
8
BLACK
6
CONTINUOUS
10
-0.4547244094488189
20
-0.4993967716535433
11
-0.4654383464566929
21
-0.4924390551181102
0
LINE
8
BLACK
6
CONTINUOUS
10
-0.4654383464566929
20
-0.4924390551181102
11
-0.4753663385826771
21
-0.4843995669291338
0
LINE
8
BLACK
6
CONTINUOUS
10
-0.4753663385826771
20
-0.4843995669291338
11
-0.4843995669291338
21
-0.4753663385826771
0
LINE
8
BLACK
6
CONTINUOUS
10
-0.4843995669291338
20
-0.4753663385826771
11
-0.4924390551181102
21
-0.4654383464566929
0
LINE
8
BLACK
6
CONTINUOUS
10
-0.4924390551181102
20
-0.4654383464566929
11
-0.4993967716535433
21
-0.4547244094488189
0
LINE
8
BLACK
6
CONTINUOUS
10
-0.4993967716535433
20
-0.4547244094488189
11
-0.5051964960629921
21
-0.4433418503937008
0
LINE
8
BLACK
6
CONTINUOUS
10
-0.5051964960629921
20
-0.4433418503937008
11
-0.5097746062992126
21
-0.4314154724409449
0
LINE
8
BLACK
6
CONTINUOUS
10
-0.5097746062992126
20
-0.4314154724409449
11
-0.5130809842519685
21
-0.4190758267716536
0
LINE
8
BLACK
6
CONTINUOUS
10
-0.5130809842519685
20
-0.4190758267716536
11
-0.5150794488188977
21
-0.4064581889763779
0
LINE
8
BLACK
6
CONTINUOUS
10
-0.5150794488188977
20
-0.4064581889763779
11
-0.515748031496063
21
-0.3937007874015748
0
LINE
8
BLACK
6
CONTINUOUS
10
-0.515748031496063
20
-0.3937007874015748
11
-0.515748031496063
21
0.3937007874015748
0
LINE
8
BLACK
6
CONTINUOUS
10
-0.515748031496063
20
0.3937007874015748
11
-0.5150794488188977
21
0.4064581889763779
0
LINE
8
BLACK
6
CONTINUOUS
10
-0.5150794488188977
20
0.4064581889763779
11
-0.5130809842519685
21
0.4190758267716536
0
LINE
8
BLACK
6
CONTINUOUS
10
-0.5130809842519685
20
0.4190758267716536
11
-0.5097746062992126
21
0.4314154724409449
0
LINE
8
BLACK
6
CONTINUOUS
10
-0.5097746062992126
20
0.4314154724409449
11
-0.5051964960629921
21
0.4433418503937008
0
LINE
8
BLACK
6
CONTINUOUS
10
-0.5051964960629921
20
0.4433418503937008
11
-0.4993967716535433
21
0.4547244094488189
0
LINE
8
BLACK
6
CONTINUOUS
10
-0.4993967716535433
20
0.4547244094488189
11
-0.4924390551181102
21
0.4654383464566929
0
LINE
8
BLACK
6
CONTINUOUS
10
-0.4924390551181102
20
0.4654383464566929
11
-0.4843995669291338
21
0.4753663385826771
0
LINE
8
BLACK
6
CONTINUOUS
10
-0.4843995669291338
20
0.4753663385826771
11
-0.4753663385826771
21
0.4843995669291338
0
LINE
8
BLACK
6
CONTINUOUS
10
-0.4753663385826771
20
0.4843995669291338
11
-0.4654383464566929
21
0.4924390551181102
0
LINE
8
BLACK
6
CONTINUOUS
10
-0.4654383464566929
20
0.4924390551181102
11
-0.4547244094488189
21
0.4993967716535433
0
LINE
8
BLACK
6
CONTINUOUS
10
-0.4547244094488189
20
0.4993967716535433
11
-0.4433418503937008
21
0.5051964960629921
0
LINE
8
BLACK
6
CONTINUOUS
10
-0.4433418503937008
20
0.5051964960629921
11
-0.4314154724409449
21
0.5097746062992126
0
LINE
8
BLACK
6
CONTINUOUS
10
-0.4314154724409449
20
0.5097746062992126
11
-0.4190758267716536
21
0.5130809842519685
0
LINE
8
BLACK
6
CONTINUOUS
10
-0.4190758267716536
20
0.5130809842519685
11
-0.4064581889763779
21
0.5150794488188977
0
LINE
8
BLACK
6
CONTINUOUS
10
-0.4064581889763779
20
0.5150794488188977
11
-0.3937007874015748
21
0.515748031496063
0
LINE
8
BLACK
6
CONTINUOUS
10
-0.3937007874015748
20
0.515748031496063
11
0.3937007874015748
21
0.515748031496063
0
LINE
8
BLACK
6
CONTINUOUS
10
-0.3937007874015748
20
0.5078740157480315
11
-0.4001125984251969
21
0.5078740157480315
0
LINE
8
BLACK
6
CONTINUOUS
10
-0.4001125984251969
20
0.5078740157480315
11
-0.4128556299212598
21
0.5064381889763779
0
LINE
8
BLACK
6
CONTINUOUS
10
-0.4128556299212598
20
0.5064381889763779
11
-0.4253577952755905
21
0.5035846456692913
0
LINE
8
BLACK
6
CONTINUOUS
10
-0.4253577952755905
20
0.5035846456692913
11
-0.437461811023622
21
0.4993492913385827
0
LINE
8
BLACK
6
CONTINUOUS
10
-0.437461811023622
20
0.4993492913385827
11
-0.4490155511811024
21
0.4937853149606299
0
LINE
8
BLACK
6
CONTINUOUS
10
-0.4490155511811024
20
0.4937853149606299
11
-0.4598736220472441
21
0.486962716535433
0
LINE
8
BLACK
6
CONTINUOUS
10
-0.4598736220472441
20
0.486962716535433
11
-0.4698995669291339
21
0.4789672834645669
0
LINE
8
BLACK
6
CONTINUOUS
10
-0.4698995669291339
20
0.4789672834645669
11
-0.4789672834645669
21
0.4698995669291339
0
LINE
8
BLACK
6
CONTINUOUS
10
-0.4789672834645669
20
0.4698995669291339
11
-0.486962716535433
21
0.4598736220472441
0
LINE
8
BLACK
6
CONTINUOUS
10
-0.486962716535433
20
0.4598736220472441
11
-0.4937853149606299
21
0.4490155511811024
0
LINE
8
BLACK
6
CONTINUOUS
10
-0.4937853149606299
20
0.4490155511811024
11
-0.4993492913385827
21
0.437461811023622
0
LINE
8
BLACK
6
CONTINUOUS
10
-0.4993492913385827
20
0.437461811023622
11
-0.5035846456692913
21
0.4253577952755905
0
LINE
8
BLACK
6
CONTINUOUS
10
-0.5035846456692913
20
0.4253577952755905
11
-0.5064381889763779
21
0.4128556299212598
0
LINE
8
BLACK
6
CONTINUOUS
10
-0.5064381889763779
20
0.4128556299212598
11
-0.5078740157480315
21
0.4001125984251969
0
LINE
8
BLACK
6
CONTINUOUS
10
-0.5078740157480315
20
0.4001125984251969
11
-0.5078740157480315
21
0.3937007874015748
0
LINE
8
BLACK
6
CONTINUOUS
10
-0.5078740157480315
20
0.3937007874015748
11
-0.5078740157480315
21
-0.3937007874015748
0
LINE
8
BLACK
6
CONTINUOUS
10
-0.5078740157480315
20
-0.3937007874015748
11
-0.5078740157480315
21
-0.4001125984251969
0
LINE
8
BLACK
6
CONTINUOUS
10
-0.5078740157480315
20
-0.4001125984251969
11
-0.5064381889763779
21
-0.4128556299212598
0
LINE
8
BLACK
6
CONTINUOUS
10
-0.5064381889763779
20
-0.4128556299212598
11
-0.5035846456692913
21
-0.4253577952755905
0
LINE
8
BLACK
6
CONTINUOUS
10
-0.5035846456692913
20
-0.4253577952755905
11
-0.4993492913385827
21
-0.437461811023622
0
LINE
8
BLACK
6
CONTINUOUS
10
-0.4993492913385827
20
-0.437461811023622
11
-0.4937853149606299
21
-0.4490155511811024
0
LINE
8
BLACK
6
CONTINUOUS
10
-0.4937853149606299
20
-0.4490155511811024
11
-0.486962716535433
21
-0.4598736220472441
0
LINE
8
BLACK
6
CONTINUOUS
10
-0.486962716535433
20
-0.4598736220472441
11
-0.4789672834645669
21
-0.4698995669291339
0
LINE
8
BLACK
6
CONTINUOUS
10
-0.4789672834645669
20
-0.4698995669291339
11
-0.4698995669291339
21
-0.4789672834645669
0
LINE
8
BLACK
6
CONTINUOUS
10
-0.4698995669291339
20
-0.4789672834645669
11
-0.4598736220472441
21
-0.486962716535433
0
LINE
8
BLACK
6
CONTINUOUS
10
-0.4598736220472441
20
-0.486962716535433
11
-0.4490155511811024
21
-0.4937853149606299
0
LINE
8
BLACK
6
CONTINUOUS
10
-0.4490155511811024
20
-0.4937853149606299
11
-0.437461811023622
21
-0.4993492913385827
0
LINE
8
BLACK
6
CONTINUOUS
10
-0.437461811023622
20
-0.4993492913385827
11
-0.4253577952755905
21
-0.5035846456692913
0
LINE
8
BLACK
6
CONTINUOUS
10
-0.4253577952755905
20
-0.5035846456692913
11
-0.4128556299212598
21
-0.5064381889763779
0
LINE
8
BLACK
6
CONTINUOUS
10
-0.4128556299212598
20
-0.5064381889763779
11
-0.4001125984251969
21
-0.5078740157480315
0
LINE
8
BLACK
6
CONTINUOUS
10
-0.4001125984251969
20
-0.5078740157480315
11
-0.3937007874015748
21
-0.5078740157480315
0
LINE
8
BLACK
6
CONTINUOUS
10
-0.3937007874015748
20
-0.5078740157480315
11
0.3937007874015748
21
-0.5078740157480315
0
LINE
8
BLACK
6
CONTINUOUS
10
0.3937007874015748
20
-0.5078740157480315
11
0.4001125984251969
21
-0.5078740157480315
0
LINE
8
BLACK
6
CONTINUOUS
10
0.4001125984251969
20
-0.5078740157480315
11
0.4128556299212598
21
-0.5064381889763779
0
LINE
8
BLACK
6
CONTINUOUS
10
0.4128556299212598
20
-0.5064381889763779
11
0.4253577952755905
21
-0.50358468503937
0
LINE
8
BLACK
6
CONTINUOUS
10
0.4253577952755905
20
-0.50358468503937
11
0.437461811023622
21
-0.4993492913385827
0
LINE
8
BLACK
6
CONTINUOUS
10
0.437461811023622
20
-0.4993492913385827
11
0.4490155511811024
21
-0.4937853149606299
0
LINE
8
BLACK
6
CONTINUOUS
10
0.4490155511811024
20
-0.4937853149606299
11
0.4598736614173228
21
-0.486962716535433
0
LINE
8
BLACK
6
CONTINUOUS
10
0.4598736614173228
20
-0.486962716535433
11
0.4698996062992126
21
-0.4789672834645669
0
LINE
8
BLACK
6
CONTINUOUS
10
0.4698996062992126
20
-0.4789672834645669
11
0.4789672834645669
21
-0.4698996062992126
0
LINE
8
BLACK
6
CONTINUOUS
10
0.4789672834645669
20
-0.4698996062992126
11
0.486962716535433
21
-0.4598736614173228
0
LINE
8
BLACK
6
CONTINUOUS
10
0.486962716535433
20
-0.4598736614173228
11
0.4937853149606299
21
-0.4490155511811024
0
LINE
8
BLACK
6
CONTINUOUS
10
0.4937853149606299
20
-0.4490155511811024
11
0.4993492913385827
21
-0.437461811023622
0
LINE
8
BLACK
6
CONTINUOUS
10
0.4993492913385827
20
-0.437461811023622
11
0.50358468503937
21
-0.4253577952755905
0
LINE
8
BLACK
6
CONTINUOUS
10
0.50358468503937
20
-0.4253577952755905
11
0.5064381889763779
21
-0.4128556299212598
0
LINE
8
BLACK
6
CONTINUOUS
10
0.5064381889763779
20
-0.4128556299212598
11
0.5078740157480315
21
-0.4001125984251969
0
LINE
8
BLACK
6
CONTINUOUS
10
0.5078740157480315
20
-0.4001125984251969
11
0.5078740157480315
21
-0.3937007874015748
0
LINE
8
BLACK
6
CONTINUOUS
10
0.5078740157480315
20
-0.3937007874015748
11
0.5078740157480315
21
0.3937007874015748
0
LINE
8
BLACK
6
CONTINUOUS
10
0.5078740157480315
20
0.3937007874015748
11
0.5078740157480315
21
0.4001125984251969
0
LINE
8
BLACK
6
CONTINUOUS
10
0.5078740157480315
20
0.4001125984251969
11
0.5064381889763779
21
0.4128556299212598
0
LINE
8
BLACK
6
CONTINUOUS
10
0.5064381889763779
20
0.4128556299212598
11
0.50358468503937
21
0.4253577952755905
0
LINE
8
BLACK
6
CONTINUOUS
10
0.50358468503937
20
0.4253577952755905
11
0.4993492913385827
21
0.437461811023622
0
LINE
8
BLACK
6
CONTINUOUS
10
0.4993492913385827
20
0.437461811023622
11
0.4937853149606299
21
0.4490155511811024
0
LINE
8
BLACK
6
CONTINUOUS
10
0.4937853149606299
20
0.4490155511811024
11
0.486962716535433
21
0.4598736614173228
0
LINE
8
BLACK
6
CONTINUOUS
10
0.486962716535433
20
0.4598736614173228
11
0.4789672834645669
21
0.4698996062992126
0
LINE
8
BLACK
6
CONTINUOUS
10
0.4789672834645669
20
0.4698996062992126
11
0.4698996062992126
21
0.4789672834645669
0
LINE
8
BLACK
6
CONTINUOUS
10
0.4698996062992126
20
0.4789672834645669
11
0.4598736614173228
21
0.486962716535433
0
LINE
8
BLACK
6
CONTINUOUS
10
0.4598736614173228
20
0.486962716535433
11
0.4490155511811024
21
0.4937853149606299
0
LINE
8
BLACK
6
CONTINUOUS
10
0.4490155511811024
20
0.4937853149606299
11
0.437461811023622
21
0.4993492913385827
0
LINE
8
BLACK
6
CONTINUOUS
10
0.437461811023622
20
0.4993492913385827
11
0.4253577952755905
21
0.50358468503937
0
LINE
8
BLACK
6
CONTINUOUS
10
0.4253577952755905
20
0.50358468503937
11
0.4128556299212598
21
0.5064381889763779
0
LINE
8
BLACK
6
CONTINUOUS
10
0.4128556299212598
20
0.5064381889763779
11
0.4001125984251969
21
0.5078740157480315
0
LINE
8
BLACK
6
CONTINUOUS
10
0.4001125984251969
20
0.5078740157480315
11
0.3937007874015748
21
0.5078740157480315
0
LINE
8
BLACK
6
CONTINUOUS
10
0.3937007874015748
20
0.5078740157480315
11
-0.3937007874015748
21
0.5078740157480315
  0
ENDSEC
  0
EOF
